<svg width="50" height="50" viewBox="0 0 50 50" fill="none" xmlns="http://www.w3.org/2000/svg">
<g clip-path="url(#clip0_579_3083)">
<path d="M17.3656 1.63966C12.3848 3.36753 8.08941 6.64711 5.11029 10.9967C2.13116 15.3462 0.625352 20.5365 0.814046 25.8051C1.00274 31.0737 2.87599 36.1429 6.15864 40.2682C9.44129 44.3935 13.9603 47.3573 19.0519 48.7245C23.1798 49.7896 27.5047 49.8364 31.6546 48.8608C35.4141 48.0163 38.8898 46.21 41.7415 43.6188C44.7094 40.8394 46.8637 37.3037 47.9727 33.3917C49.1781 29.1376 49.3926 24.6638 48.5997 20.3139H25.4195V29.9295H38.8439C38.5756 31.4631 38.0007 32.9268 37.1535 34.2331C36.3063 35.5393 35.2043 36.6612 33.9135 37.5316C32.2742 38.616 30.4263 39.3456 28.4884 39.6736C26.5448 40.035 24.5512 40.035 22.6076 39.6736C20.6378 39.2663 18.7743 38.4533 17.1358 37.2863C14.5037 35.4231 12.5274 32.7761 11.4888 29.7231C10.4326 26.6129 10.4326 23.2411 11.4888 20.1309C12.2281 17.9508 13.4502 15.9658 15.064 14.3241C16.9107 12.4109 19.2487 11.0434 21.8216 10.3715C24.3944 9.69959 27.1026 9.74935 29.649 10.5153C31.6382 11.1259 33.4572 12.1928 34.9611 13.6309C36.4748 12.125 37.9858 10.6152 39.4943 9.10157C40.2732 8.28761 41.1222 7.5126 41.8894 6.67917C39.5939 4.54293 36.8993 2.88067 33.9602 1.78765C28.608 -0.155761 22.7517 -0.207988 17.3656 1.63966Z" fill="white"/>
<path d="M17.3657 1.63959C22.7513 -0.209304 28.6076 -0.158452 33.9603 1.78369C36.9 2.88414 39.5933 4.55441 41.8857 6.69858C41.1068 7.53201 40.285 8.31092 39.4905 9.12098C37.9795 10.6295 36.4697 12.1327 34.9612 13.6308C33.4573 12.1927 31.6383 11.1258 29.6491 10.5152C27.1035 9.7466 24.3954 9.69397 21.8219 10.3631C19.2484 11.0322 16.909 12.3973 15.0602 14.3085C13.4464 15.9502 12.2243 17.9351 11.485 20.1152L3.41165 13.8645C6.30142 8.13396 11.3049 3.75052 17.3657 1.63959Z" fill="#E33629"/>
<path d="M1.26941 20.0566C1.70334 17.906 2.42376 15.8233 3.4114 13.8643L11.4848 20.1306C10.4286 23.2407 10.4286 26.6126 11.4848 29.7228C8.79493 31.7998 6.10381 33.8873 3.4114 35.9852C0.938961 31.0637 0.184911 25.4563 1.26941 20.0566Z" fill="#F8BD00"/>
<path d="M25.4195 20.3096H48.5997C49.3926 24.6595 49.1781 29.1333 47.9727 33.3874C46.8637 37.2994 44.7094 40.8351 41.7414 43.6144C39.136 41.5815 36.5189 39.5641 33.9134 37.5312C35.2052 36.6599 36.3077 35.5368 37.1549 34.2291C38.0021 32.9215 38.5766 31.4563 38.8439 29.9213H25.4195C25.4156 26.72 25.4195 23.5148 25.4195 20.3096Z" fill="#587DBD"/>
<path d="M3.40759 35.9851C6.10001 33.908 8.79113 31.8205 11.4809 29.7227C12.5216 32.7767 14.5008 35.4238 17.1358 37.2858C18.7793 38.4474 20.6468 39.2538 22.6193 39.6537C24.5629 40.0151 26.5564 40.0151 28.5 39.6537C30.4379 39.3257 32.2858 38.5961 33.9251 37.5117C36.5305 39.5447 39.1477 41.562 41.7531 43.595C38.9019 46.1876 35.4261 47.9953 31.6663 48.8409C27.5163 49.8165 23.1915 49.7697 19.0636 48.7046C15.7988 47.8329 12.7493 46.2962 10.1062 44.1908C7.30859 41.9697 5.02365 39.1707 3.40759 35.9851Z" fill="#319F43"/>
</g>
<defs>
<clipPath id="clip0_579_3083">
<rect width="49.8499" height="49.8499" fill="white"/>
</clipPath>
</defs>
</svg>
